<svg width="507" height="720" xmlns="http://www.w3.org/2000/svg" xmlns:xlink="http://www.w3.org/1999/xlink" xml:space="preserve" overflow="hidden"><defs><clipPath id="clip0"><rect x="382" y="0" width="507" height="720"/></clipPath><clipPath id="clip1"><rect x="771" y="202" width="123" height="74"/></clipPath></defs><g clip-path="url(#clip0)" transform="translate(-382 0)"><path d="M730.531 0.493056 701.667 53.5764 729.361 60.8507 734.052 62.0833 731.038 65.8785 690.542 116.84 720.083 123.802 724.149 124.757 722.142 128.413 682.066 201.156 693.889 204.906 697.705 206.111 695.653 209.545 671.024 250.719 706.528 202.538 694.691 199.312 690.118 198.069 693.021 194.319 752 118.236 732.038 112.264 727.378 110.875 730.538 107.177 772.701 57.8924 742.948 45.7118 739.229 44.1944 741.559 40.9479 770.576 0.493056 778.378 0.493056 749.042 41.3958 779.135 53.7118 783.188 55.3715 780.347 58.6875 738.507 107.59 758.233 113.486 762.66 114.809 759.83 118.455 700.924 194.438 712.642 197.628 717.108 198.84 714.365 202.562 637.066 307.472 598.003 360.493 631.802 303.983 688.17 209.736 676.472 206.031 672.795 204.872 674.656 201.486 714.583 129.007 684.243 121.861 679.382 120.712 682.486 116.809 723.062 65.7396 696.16 58.6736 692.264 57.6528 694.191 54.1076 723.333 0.493056 730.531 0.493056" fill-rule="evenodd" transform="matrix(1.00064 0 0 1 -0.10719 3.11111e-06)"/><path d="M726.927 0.493056 696.962 55.6146 728.552 63.9167 684.962 118.771 719.372 126.882 677.427 203.01 692.941 207.92 634.514 305.608 711.812 200.688 695.521 196.253 757.33 116.521 732.941 109.236 777.944 56.6285 744.139 42.7917 774.483 0.493056 726.927 0.493056" fill="#FFE100" fill-rule="evenodd" transform="matrix(1.00064 0 0 1 -0.10719 3.11111e-06)"/><path d="M518.035 719.507 548.302 654.201 519.962 646.858 515.403 645.674 518.219 641.903 556.073 591.205 525.983 584.191 522.028 583.274 523.889 579.656 607.229 417.483 499.788 588.906 520.549 595.014 525.087 596.354 522.122 600.028 478.049 654.674 508.264 660.674 512.955 661.608 510.285 665.556 473.812 719.507 466.167 719.507 502.368 665.958 471.694 659.865 466.556 658.84 469.837 654.767 514.226 599.743 494.01 593.795 490.017 592.618 492.229 589.09 641.24 351.33 646.726 354.455 531.365 578.941 562.229 586.132 566.948 587.236 564.052 591.111 526.108 641.917 553.559 649.035 557.229 649.983 555.642 653.417 525.014 719.507 518.035 719.507" fill-rule="evenodd" transform="matrix(1.00064 0 0 1 -0.10719 3.11111e-06)"/><path d="M521.521 719.507 552.767 652.094 520.757 643.799 561.507 589.215 526.694 581.111 643.917 353 494.899 590.757 519.653 598.052 472.299 656.753 507.66 663.781 469.983 719.507 521.521 719.507" fill="#FFE100" fill-rule="evenodd" transform="matrix(1.00064 0 0 1 -0.10719 3.11111e-06)"/><path d="M707.969 12.3229 680.604 56.1944 710.312 67.2674 667.392 123.896 702.976 134.177 670.031 189.938 690.552 140.653 646.188 129.045 693.108 71.6215 665.708 62.1736 707.969 12.3229" fill-rule="evenodd" transform="matrix(1.00064 0 0 1 -0.10719 3.11111e-06)"/><path d="M544.51 638.455 579.424 580.191 547.861 569.42 606.944 448.656 570.851 555.413 603.819 567.309 544.51 638.455" fill-rule="evenodd" transform="matrix(1.00064 0 0 1 -0.10719 3.11111e-06)"/><path d="M485.708 270.073 482.104 267.441 463.323 253.646 485.09 261.924C489.649 263.66 494.045 265.375 498.472 267.108 526.115 277.917 555.382 289.365 564.337 282.764 569.052 279.285 568.639 270.271 565.653 258.625 562.413 245.969 556.052 230.493 549.656 215.309L541.097 194.997 555.017 212.09C557.889 215.625 560.434 218.885 562.972 222.156 576.99 240.17 591.181 258.403 604.372 252.83 617.559 247.257 624.309 208.938 629.316 180.51 630.486 173.865 631.566 167.753 632.677 162.417L639.528 129.625 638.931 163.108C638.608 181.392 638.931 211.104 642.622 232.993 644.931 246.663 648.326 256.993 653.312 258.514 658.549 260.118 671.826 252.844 687.528 242.111 712.285 225.177 742.229 199.708 757.851 185.615L791.326 155.417 762.396 189.997C747.5 207.802 725.34 237.597 712.319 262.212 703.705 278.49 699.056 292.122 703.444 297.351 712.899 308.615 763.955 302.615 802.92 298.035 812.424 296.917 821.226 295.878 828.958 295.174L856.125 292.712 830.24 301.319C824.212 303.326 817.108 305.458 809.233 307.826 775.628 317.938 727.934 332.288 724.802 345.833 721.979 358.038 753.344 369.16 781.319 379.094 789.069 381.837 796.559 384.5 803.198 387.16L824.878 395.851 801.67 393.233C792.611 392.219 781.472 389.674 769.819 387.021 740.618 380.368 708.017 372.941 701.278 387.469 693.653 403.903 724.597 427.576 744.986 443.17 750.191 447.156 754.74 450.642 757.882 453.406L773.167 466.868 754.528 458.684C749.184 456.34 741.566 452.142 732.979 447.42 710.424 435.017 680.889 418.774 674.611 424.635 667.559 431.208 678.472 469.031 688.059 502.264 690.868 511.997 693.566 521.358 695.615 529.319L701.253 551.135 689.837 531.708C685.323 524.028 680.663 514.438 675.84 504.5 663.181 478.42 649.278 449.795 636.448 450.965 623.059 452.194 615.031 480.278 607.229 507.573 604.67 516.535 602.135 525.41 599.299 533.594L590.576 558.681 593.167 532.26C593.819 525.569 595.174 517.181 596.642 508.087 601.312 479.198 607.17 442.913 595.226 437.694 582.976 432.347 532.267 487.809 496.649 526.767 486.017 538.399 476.688 548.597 470.108 555.26L448.712 576.92 465.188 551.333C471.076 542.194 480.392 529.003 490.795 514.278 519.733 473.309 557.302 420.122 551.545 414.285 545.781 408.438 505.33 428.174 472.188 444.333 458.608 450.951 446.222 456.993 437.552 460.517L407.385 472.781 434.635 454.934C440.406 451.156 448.993 446.104 458.698 440.399 490.34 421.792 534.247 395.983 532.969 383.705 531.497 369.559 494.632 359.559 464.896 351.486 460.976 350.427 457.184 349.399 452.882 348.184L429.819 341.677 453.778 341.979C457.351 342.024 461.205 342.118 465.299 342.222 493.75 342.948 534.115 343.972 540.049 329.715 546.406 314.431 508 286.365 485.708 270.073" fill-rule="evenodd" transform="matrix(1.00064 0 0 1 -0.10719 3.11111e-06)"/><path d="M483.979 264.889C506.153 281.16 550.677 312.392 542.965 330.927 535.26 349.465 482.215 345.493 453.743 345.132 485.392 354.059 534.188 364.854 536.115 383.382 538.049 401.91 462.021 440.781 436.361 457.59 466.41 445.378 543.503 401.628 553.795 412.062 564.097 422.503 490.326 518.153 467.851 553.045 497.347 523.188 578.007 426.722 596.49 434.795 614.979 442.872 599.083 504.226 596.312 532.562 607.708 499.733 615.656 449.694 636.167 447.819 656.674 445.951 676.038 502.014 692.559 530.115 683.08 493.441 661.597 432.444 672.458 422.319 683.316 412.194 736.465 447.295 755.792 455.788 739.847 441.747 687.611 409.41 698.403 386.146 709.194 362.875 769.701 386.448 802.021 390.087 770.938 377.625 717.347 364.038 721.722 345.125 726.09 326.208 799.184 308.326 829.247 298.319 791.295 301.767 714.142 315.01 701.021 299.385 687.896 283.753 734.493 218.413 759.969 187.965 733.948 211.444 668.281 266.403 652.392 261.535 636.507 256.667 635.226 193.806 635.778 163.062 630.073 190.358 623.788 248.059 605.59 255.743 587.403 263.424 569.903 235.375 552.566 214.09 565.448 244.663 578.205 276.462 566.205 285.312 554.208 294.16 515.698 276.948 483.979 264.889" fill="#ED1210" fill-rule="evenodd" transform="matrix(1.00064 0 0 1 -0.10719 3.11111e-06)"/><path d="M573.198 137.125C570.875 129.212 562.146 131.66 564.979 141.167L620.802 316.354 573.198 137.125" fill-rule="evenodd" transform="matrix(1.00064 0 0 1 -0.10719 3.11111e-06)"/><path d="M878.028 399.521C885.951 401.806 889.385 388.983 879.851 386.271L760.903 361.743 878.028 399.521" fill-rule="evenodd" transform="matrix(1.00064 0 0 1 -0.10719 3.11111e-06)"/><path d="M614.566 448.677C619.639 430.267 624.927 403.562 632.125 403.194 638.167 402.896 651.517 425.365 658.913 444.656 652.542 423.292 645.608 397.264 651.135 392.108 655.944 387.625 701.58 420.917 717.201 430.128 707.115 419.274 659.444 383.882 666.135 369.462 670.354 360.368 697.073 361.073 716.656 363.354 701.424 358.972 679.684 349.243 680.986 343.625 682.198 338.368 714.351 322.736 724.503 320.385 715.51 319.597 678.257 332.076 668.972 319.951 660.306 308.642 717.681 235.757 726.038 225.031 716.188 232.934 657.406 296.885 640.667 294.062 630.08 292.278 630.427 251.653 629.17 241.847 626.58 253.219 622.104 294.306 615.906 296.542 609.774 298.753 593.094 280.587 588.226 271.344 591.438 283.455 597.406 305.688 590.438 312.208 584.167 318.069 531.667 292.056 518.306 283.819 533.826 295.833 575.403 329.847 571.521 339.184 568.611 346.191 546.406 348.493 532.417 350.559 551.222 354.639 577.066 350.045 577.691 363.368 577.903 367.896 553.236 390.681 542.038 398.014 547.979 394.622 584.035 376.587 587.351 379.955 593.069 385.75 519.403 486.045 507.778 502.514 523.955 484.521 594.51 403.205 607.118 408.219 615.875 411.708 613.795 431.597 614.566 448.677" fill="#F58214" fill-rule="evenodd" transform="matrix(1.00064 0 0 1 -0.10719 3.11111e-06)"/><path d="M463.556 408.951C448.469 412.469 446.903 396.41 460.615 394.233L603.913 357.781 463.556 408.951" fill-rule="evenodd" transform="matrix(1.00064 0 0 1 -0.10719 3.11111e-06)"/><path d="M606.149 303.997C612.017 318.083 614.677 327.663 611.052 334.899 607.427 342.142 594.983 345.764 585.878 348.795 598.09 348.795 610.267 350.913 615.149 358.052 620.677 366.146 620.597 383.507 618.288 405.021 622.948 383.167 628.844 364.868 637.719 357.545 643.785 352.545 660.003 352.906 668.944 354.413 661.069 349.406 652.16 341.92 649.635 333.913 647.094 325.833 674.354 287.431 682.396 274.917 674.163 284.628 642.608 320.201 631.5 321.736 621.705 323.09 612.788 315.299 606.149 303.997" fill="#FDB913" fill-rule="evenodd" transform="matrix(1.00064 0 0 1 -0.10719 3.11111e-06)"/><path d="M560.281 306.215 620.698 430.531 675.031 429.333 703.872 266.094 645.569 279.49 639.858 365.014 611.149 274.219 560.281 306.215" fill-rule="evenodd" transform="matrix(1.00064 0 0 1 -0.10719 3.11111e-06)"/><path d="M563.205 307.049 622.097 428.24 673.118 427.108 701.049 269.073 647.719 281.319 642.115 365.17C642.042 366.257 641.205 367.139 640.132 367.264 639.066 367.396 638.028 366.743 637.698 365.698L609.868 277.698ZM620.698 432.799C619.83 432.799 619.038 432.299 618.663 431.517L558.243 307.201C557.736 306.167 558.097 304.917 559.073 304.299L609.944 272.299C610.531 271.931 611.267 271.851 611.927 272.094 612.583 272.337 613.097 272.865 613.302 273.535L638.396 352.889 643.312 279.337C643.378 278.344 644.094 277.503 645.062 277.285L703.365 263.889C704.108 263.719 704.878 263.934 705.431 264.455 705.983 264.976 706.233 265.74 706.101 266.49L677.257 429.733C677.066 430.788 676.156 431.569 675.073 431.597L620.743 432.799C620.729 432.799 620.715 432.799 620.698 432.799" transform="matrix(1.00064 0 0 1 -0.10719 3.11111e-06)"/><path d="M568.361 296.983 628.771 421.299 683.104 420.101 711.951 256.868 653.649 270.257 647.931 355.788 619.222 264.99 568.361 296.983" fill="#FFE100" fill-rule="evenodd" transform="matrix(1.00064 0 0 1 -0.10719 3.11111e-06)"/><path d="M571.278 297.819 630.177 419.003 681.198 417.878 709.122 259.837 655.799 272.087 650.194 355.941C650.122 357.021 649.285 357.906 648.201 358.038 647.128 358.163 646.108 357.507 645.771 356.472L617.948 268.469ZM628.771 423.562C627.91 423.562 627.118 423.069 626.736 422.292L566.316 297.976C565.816 296.931 566.177 295.681 567.153 295.069L618.014 263.073C618.611 262.698 619.347 262.625 620.007 262.868 620.663 263.101 621.17 263.639 621.382 264.309L646.476 343.663 651.385 270.108C651.458 269.108 652.167 268.278 653.142 268.049L711.444 254.66C712.181 254.486 712.958 254.705 713.51 255.226 714.056 255.75 714.312 256.514 714.181 257.257L685.33 420.497C685.146 421.556 684.236 422.34 683.153 422.365L628.823 423.562C628.809 423.562 628.785 423.562 628.771 423.562" transform="matrix(1.00064 0 0 1 -0.10719 3.11111e-06)"/><path d="M758.497 300.292C761.337 290.115 746.851 279.146 737.08 288.549 727.038 298.226 734.941 308.49 745.455 312.413 760.681 318.09 785.819 320.694 790.875 350.354 797.545 389.483 770.858 415.083 728.979 421.372 715.715 423.365 694.924 417.819 683.837 408.51L700.674 364C705.365 369.955 720.306 376.403 728.767 375.132 745.816 372.573 751.167 362.913 741.177 354.316 726.368 341.583 696.073 335.847 692.292 311.622 687.545 281.188 704.635 261.882 726.229 251.545 756.316 237.132 791.288 258.25 792.142 285.24L758.497 300.292" fill-rule="evenodd" transform="matrix(1.00064 0 0 1 -0.10719 3.11111e-06)"/><path d="M685.719 408.003C694.771 415.108 710.274 420.188 723.149 420.188 725.156 420.188 727.038 420.056 728.743 419.806 752.059 416.299 770.542 406.587 780.774 392.431 789.184 380.816 792.059 366.75 789.309 350.618 785.215 326.545 767.201 320.965 752.726 316.479 749.948 315.622 747.323 314.806 744.903 313.899 737.566 311.163 732.281 305.965 731.118 300.34 730.465 297.201 730.781 292.417 735.979 287.41 738.715 284.778 742.014 283.385 745.528 283.385 750.059 283.385 754.674 285.771 757.594 289.615 759.469 292.087 760.448 294.91 760.438 297.688L790.51 284.233C789.215 264.733 769.444 248.455 746.719 248.455 739.83 248.455 733.17 249.979 726.913 252.969 712.26 259.993 688.476 276.91 693.858 311.378 696.316 327.097 710.594 334.701 724.406 342.052 731.066 345.597 737.361 348.941 742.212 353.118 746.764 357.031 748.618 361.462 747.42 365.594 745.823 371.139 739.111 375.184 729 376.705 728.201 376.823 727.347 376.882 726.444 376.882 718.51 376.882 707.017 372.198 701.264 366.927ZM723.149 423.358C709.188 423.358 692.226 417.622 682.816 409.726 682.295 409.292 682.118 408.576 682.354 407.951L699.198 363.441C699.396 362.903 699.865 362.521 700.431 362.434 701.003 362.344 701.562 362.573 701.917 363.021 706.021 368.212 718.622 373.712 726.444 373.712 727.184 373.712 727.892 373.66 728.524 373.566 737.229 372.264 743.153 368.955 744.375 364.719 745.205 361.847 743.698 358.58 740.146 355.521 735.559 351.573 729.42 348.309 722.92 344.854 709.094 337.493 693.424 329.156 690.726 311.865 685.028 275.372 710.101 257.514 725.545 250.111 732.229 246.913 739.354 245.288 746.719 245.288 771.517 245.288 793.045 263.566 793.722 285.188 793.743 285.837 793.375 286.424 792.788 286.688L759.139 301.74C758.58 301.99 757.924 301.892 757.462 301.49 756.997 301.09 756.799 300.451 756.969 299.865 757.726 297.16 757.035 294.122 755.066 291.528 752.743 288.462 749.087 286.556 745.528 286.556 742.854 286.556 740.309 287.646 738.184 289.694 734.84 292.91 733.507 296.274 734.215 299.694 735.156 304.194 739.781 308.608 746.014 310.931 748.344 311.806 750.934 312.597 753.667 313.451 768.969 318.194 788.01 324.097 792.441 350.09 795.295 366.844 792.149 382.132 783.347 394.292 772.444 409.358 753.726 419.253 729.215 422.938 727.354 423.215 725.312 423.358 723.149 423.358" transform="matrix(1.00064 0 0 1 -0.10719 3.11111e-06)"/><g clip-path="url(#clip1)"><path d="M872.816 212.649 867.146 226.941 893.326 239.875 861.948 244.323 853.257 274.938 840.194 247.594 770.753 262.101 831.392 229.42 818.312 202.722 849.715 218.295 875.917 204.826 872.816 212.649" fill-rule="evenodd" transform="matrix(1.00064 0 0 1 -0.10719 3.11111e-06)"/></g><path d="M869.882 211.486 863.139 228.486 882.753 238.184 859.462 241.486 852.5 266.028 841.965 243.993 791.427 254.552 835.569 230.764 825.24 209.694 849.736 221.84 869.882 211.486" fill="#FFFFFF" fill-rule="evenodd" transform="matrix(1.00064 0 0 1 -0.10719 3.11111e-06)"/><path d="M404.358 403.594 389.535 396.622 409.042 391.035 417.392 368.594 423.333 387.903 470.24 375.448 427.576 401.483 433.76 420.917 415.358 409.872 397.24 422.622 404.358 403.594" fill-rule="evenodd" transform="matrix(1.00064 0 0 1 -0.10719 3.11111e-06)"/><path d="M398.507 397.351 408.337 401.976 403.785 414.153 415.208 406.108 428.215 413.91 423.812 400.08 450 384.094 421.201 391.74 417.108 378.417 411.438 393.646 398.507 397.351" fill="#FFFFFF" fill-rule="evenodd" transform="matrix(1.00064 0 0 1 -0.10719 3.11111e-06)"/><path d="M496.809 116.823 504.882 96.5174 513.91 122.031 544.656 131.375 519.167 140.962 539.188 201.229 501.771 147.594 475.917 157.601 489.347 131.75 471.135 108.972 496.809 116.823" fill-rule="evenodd" transform="matrix(1.00064 0 0 1 -0.10719 3.11111e-06)"/><path d="M504.705 105.507 498.67 120.691 479.972 114.972 493.097 131.396 482.59 151.632 502.941 143.757 529.344 181.59 515.212 139.066 534.833 131.691 511.462 124.58 504.705 105.507" fill="#FFFFFF" fill-rule="evenodd" transform="matrix(1.00064 0 0 1 -0.10719 3.11111e-06)"/><path d="M766.24 291.438C769.083 281.264 754.594 270.292 744.83 279.698 734.788 289.372 742.691 299.635 753.205 303.562 768.424 309.24 793.566 311.833 798.625 341.5 805.285 380.632 778.604 406.226 736.729 412.51 723.458 414.51 702.667 408.969 691.58 399.653L708.424 355.146C713.115 361.104 728.045 367.552 736.507 366.278 753.566 363.719 758.91 354.052 748.927 345.465 734.118 332.729 703.819 326.993 700.035 302.767 695.292 272.33 712.385 253.028 733.972 242.691 764.062 228.281 799.038 249.396 799.889 276.389L766.24 291.438" fill="#FFE100" fill-rule="evenodd" transform="matrix(1.00064 0 0 1 -0.10719 3.11111e-06)"/><path d="M694.285 398.917C703.271 405.778 718.347 410.653 730.906 410.653 732.868 410.653 734.722 410.528 736.389 410.278 759.521 406.806 777.84 397.181 787.979 383.184 796.274 371.719 799.111 357.816 796.389 341.875 792.361 318.215 775.312 312.938 760.278 308.274 757.483 307.406 754.844 306.59 752.41 305.681 744.861 302.865 739.413 297.476 738.198 291.622 737.507 288.319 737.83 283.292 743.257 278.062 746.118 275.306 749.58 273.851 753.278 273.851 758.014 273.851 762.837 276.344 765.878 280.351 767.615 282.639 768.615 285.219 768.819 287.799L797.545 274.955C795.993 256.014 776.656 240.281 754.462 240.281 747.677 240.281 741.111 241.778 734.958 244.729 720.465 251.67 696.962 268.389 702.278 302.417 704.681 317.806 718.812 325.326 732.479 332.597 739.17 336.163 745.493 339.524 750.403 343.743 755.167 347.847 757.094 352.531 755.823 356.934 754.146 362.736 747.226 366.955 736.847 368.521 729.194 369.67 716.122 364.941 709.299 359.222ZM730.906 415.181C716.788 415.181 699.646 409.378 690.125 401.385 689.389 400.771 689.125 399.753 689.462 398.851L706.306 354.347C706.594 353.58 707.267 353.031 708.076 352.906 708.892 352.781 709.694 353.104 710.194 353.743 713.826 358.337 725.847 364.177 734.184 364.177 734.899 364.177 735.566 364.132 736.177 364.038 744.479 362.795 750.344 359.587 751.469 355.677 752.219 353.073 750.792 350.059 747.448 347.184 742.92 343.288 736.816 340.038 730.347 336.597 716.385 329.163 700.549 320.747 697.799 303.115 692.042 266.191 717.378 248.125 733 240.646 739.771 237.396 747 235.75 754.462 235.75 779.622 235.75 801.462 254.33 802.153 276.312 802.184 277.233 801.646 278.08 800.809 278.455L767.167 293.503C766.365 293.858 765.431 293.726 764.76 293.153 764.094 292.576 763.83 291.674 764.062 290.826 764.76 288.326 764.108 285.503 762.271 283.087 760.073 280.181 756.622 278.378 753.278 278.378 750.743 278.378 748.427 279.372 746.396 281.33 743.236 284.372 741.972 287.528 742.632 290.701 743.521 294.983 747.976 299.194 754 301.438 756.306 302.306 758.889 303.101 761.615 303.944 776.274 308.497 796.361 314.715 800.854 341.118 803.743 358.059 800.559 373.528 791.642 385.837 780.635 401.049 761.764 411.049 737.059 414.753 735.163 415.042 733.097 415.181 730.906 415.181" transform="matrix(1.00064 0 0 1 -0.10719 3.11111e-06)"/><path d="M752.16 221.125 806.146 157.396 832.701 164.476Z" fill="#FFE100" fill-rule="evenodd" transform="matrix(1.00064 0 0 1 -0.10719 3.11111e-06)"/><path d="M806.712 159.188 761.365 212.708 829.01 165.135ZM752.16 222.708C751.733 222.708 751.309 222.531 750.993 222.191 750.455 221.604 750.441 220.708 750.955 220.097L804.941 156.372C805.337 155.903 805.962 155.705 806.559 155.865L833.108 162.944C833.701 163.108 834.149 163.594 834.26 164.205 834.372 164.806 834.115 165.417 833.615 165.778L753.08 222.42C752.799 222.611 752.483 222.708 752.16 222.708" transform="matrix(1.00064 0 0 1 -0.10719 3.11111e-06)"/><path d="M487.545 445.927 388.427 504.344 395.507 537.983C395.507 537.983 486.656 445.927 487.545 445.927" fill="#FFE100" fill-rule="evenodd" transform="matrix(1.00064 0 0 1 -0.10719 3.11111e-06)"/><path d="M390.205 505.132 396.448 534.767C408.66 522.444 456.049 474.632 476.799 454.104ZM395.507 539.562C395.351 539.562 395.205 539.542 395.059 539.497 394.5 539.333 394.073 538.872 393.955 538.306L386.875 504.667C386.736 504.007 387.028 503.323 387.618 502.983L486.736 444.569C487.688 444.069 488.819 444.576 489.076 445.517 489.26 446.201 488.965 446.927 488.354 447.295 484.92 450.083 421.083 514.396 396.632 539.09 396.33 539.399 395.917 539.562 395.507 539.562" transform="matrix(1.00064 0 0 1 -0.10719 3.11111e-06)"/><path d="M659.24 492.837 691.983 568.958 679.597 570.722Z" fill="#FFE100" fill-rule="evenodd" transform="matrix(1.00064 0 0 1 -0.10719 3.11111e-06)"/><path d="M666.083 512.757 680.771 568.958 689.712 567.677ZM679.597 572.309C678.882 572.309 678.243 571.833 678.059 571.125L657.701 493.243C657.497 492.434 657.938 491.611 658.722 491.337 659.503 491.073 660.365 491.448 660.694 492.212L693.441 568.326C693.639 568.781 693.608 569.295 693.368 569.729 693.125 570.156 692.698 570.451 692.212 570.524L679.816 572.295C679.743 572.302 679.67 572.309 679.597 572.309" transform="matrix(1.00064 0 0 1 -0.10719 3.11111e-06)"/><path d="M524.719 264.49 420.281 204.302 428.253 178.635Z" fill="#FFE100" fill-rule="evenodd" transform="matrix(1.00064 0 0 1 -0.10719 3.11111e-06)"/><path d="M422.174 203.569 512.118 255.403 429.031 181.458ZM524.719 266.08C524.444 266.08 524.174 266.007 523.924 265.865L419.49 205.677C418.847 205.312 418.549 204.545 418.767 203.833L426.736 178.167C426.892 177.653 427.302 177.253 427.826 177.115 428.34 176.969 428.899 177.094 429.302 177.451L525.594 263.153C526.042 263.434 526.337 263.924 526.337 264.49 526.337 265.365 525.622 266.08 524.747 266.08 524.733 266.073 524.726 266.08 524.719 266.08" transform="matrix(1.00064 0 0 1 -0.10719 3.11111e-06)"/><path d="M743.316 428.233 830.049 483.986 828.278 462.75Z" fill="#FFE100" fill-rule="evenodd" transform="matrix(1.00064 0 0 1 -0.10719 3.11111e-06)"/><path d="M758.514 436.115 828.201 480.913 826.778 463.847ZM830.049 485.573C829.747 485.573 829.451 485.493 829.188 485.323L742.455 429.562C741.771 429.122 741.528 428.222 741.903 427.497 742.288 426.774 743.163 426.451 743.913 426.76L828.872 461.281C829.424 461.5 829.806 462.017 829.858 462.618L831.622 483.861C831.674 484.455 831.378 485.035 830.858 485.344 830.615 485.5 830.326 485.573 830.049 485.573" transform="matrix(1.00064 0 0 1 -0.10719 3.11111e-06)"/><path d="M684.903 448.583 740.656 596.389 749.507 577.802Z" fill-rule="evenodd" transform="matrix(1.00064 0 0 1 -0.10719 3.11111e-06)"/><path d="M395.309 325.531C387.882 324.663 388.736 316.497 397.66 317.562L562.802 340.576 395.309 325.531" fill-rule="evenodd" transform="matrix(1.00064 0 0 1 -0.10719 3.11111e-06)"/></g></svg>